<?xml version="1.0" encoding="UTF-8" standalone="no"?>
<!-- Created with Inkscape (http://www.inkscape.org/) -->

<svg
   xmlns:dc="http://purl.org/dc/elements/1.1/"
   xmlns:cc="http://creativecommons.org/ns#"
   xmlns:rdf="http://www.w3.org/1999/02/22-rdf-syntax-ns#"
   xmlns:svg="http://www.w3.org/2000/svg"
   xmlns="http://www.w3.org/2000/svg"
   xmlns:sodipodi="http://sodipodi.sourceforge.net/DTD/sodipodi-0.dtd"
   xmlns:inkscape="http://www.inkscape.org/namespaces/inkscape"
   width="686.57117mm"
   height="184.01466mm"
   viewBox="0 0 686.57114 184.01466"
   version="1.1"
   id="svg8"
   inkscape:version="0.92.4 (5da689c313, 2019-01-14)"
   sodipodi:docname="NexParabola.svg">
  <defs
     id="defs2" />
  <sodipodi:namedview
     id="base"
     pagecolor="#ffffff"
     bordercolor="#666666"
     borderopacity="1.0"
     inkscape:pageopacity="0.0"
     inkscape:pageshadow="2"
     inkscape:zoom="0.043750001"
     inkscape:cx="1965.5455"
     inkscape:cy="214.06592"
     inkscape:document-units="mm"
     inkscape:current-layer="text841"
     showgrid="false"
     showguides="true"
     inkscape:guide-bbox="true"
     fit-margin-top="0"
     fit-margin-left="0"
     fit-margin-right="0"
     fit-margin-bottom="0"
     inkscape:window-width="1366"
     inkscape:window-height="745"
     inkscape:window-x="-8"
     inkscape:window-y="-8"
     inkscape:window-maximized="1" />
  <metadata
     id="metadata5">
    <rdf:RDF>
      <cc:Work
         rdf:about="">
        <dc:format>image/svg+xml</dc:format>
        <dc:type
           rdf:resource="http://purl.org/dc/dcmitype/StillImage" />
        <dc:title></dc:title>
      </cc:Work>
    </rdf:RDF>
  </metadata>
  <g
     inkscape:label="Layer 1"
     inkscape:groupmode="layer"
     id="layer1"
     transform="translate(349.87164,2.1630372)">
    <path
       sodipodi:nodetypes="cccccccc"
       inkscape:connector-curvature="0"
       id="path825"
       d="m -254.76122,53.036481 v 32.424021 c 8.00645,0.07975 16.86624,0.03338 23.88655,0.05488 8.21422,0.0248 18.26151,0.03909 24.76096,0.01399 25.96712,-3.169409 40.9039,-24.624977 38.72494,-48.365292 -2.25164,-21.435083 -19.63103,-38.2536012 -43.69857,-39.3021409 -13.71715,-0.4095433 -27.27638,4.2189565 -34.99043,13.7753969 -7.79909,10.099059 -8.72347,24.786606 -8.68345,41.399153 z"
       style="fill:#ff8100;fill-opacity:1;fill-rule:evenodd;stroke-width:0.07015052" />
    <path
       style="fill:#ff8100;fill-opacity:1;fill-rule:evenodd;stroke-width:0.07015052"
       d="M -262.28954,126.65211 V 94.228078 c -8.00645,-0.07975 -16.86625,-0.03337 -23.88655,-0.05487 -8.21423,-0.0248 -18.26152,-0.03907 -24.76097,-0.01398 -25.96712,3.169409 -40.90389,24.624982 -38.72493,48.365292 2.25163,21.43508 19.63103,38.2536 43.69857,39.30213 13.71715,0.40955 27.27638,-4.21895 34.99043,-13.77539 7.7991,-10.09906 8.72348,-24.78661 8.68345,-41.39915 z"
       id="path827"
       inkscape:connector-curvature="0"
       sodipodi:nodetypes="cccccccc" />
    <path
       sodipodi:nodetypes="cccccccc"
       inkscape:connector-curvature="0"
       id="path835"
       d="m -262.2891,64.881637 v 20.608741 c -5.0847,0.05069 -10.71134,0.02122 -15.16976,0.03488 -5.21664,0.01576 -11.59742,0.02483 -15.72506,0.0089 -16.49108,-2.01448 -25.97705,-15.651666 -24.59325,-30.741017 1.42997,-13.624158 12.46718,-24.314021 27.75187,-24.98047 8.71143,-0.260312 17.32255,2.681571 22.22155,8.755644 4.95302,6.418982 5.54007,15.754397 5.51465,26.313354 z"
       style="fill:#005497;fill-opacity:1;fill-rule:evenodd;stroke-width:0.04456929" />
    <g
       aria-label="nexmedia"
       style="font-style:normal;font-variant:normal;font-weight:bold;font-stretch:normal;font-size:231.40446472px;line-height:1.25;font-family:'Gotham Rounded';-inkscape-font-specification:'Gotham Rounded Bold';letter-spacing:0px;word-spacing:0px;fill:#003f76;fill-opacity:1;stroke:none;stroke-width:1.20523155"
       id="text841"
       transform="matrix(0.41968859,0,0,0.41968859,-203.0345,105.53057)">
      <path
         d="m -122.69681,79.812987 c 0,9.718987 7.86775,17.586739 17.58674,17.586739 9.718988,0 17.58674,-7.867752 17.58674,-17.586739 V 26.821364 c 0,-16.661121 8.561965,-25.2230865 21.983424,-25.2230865 13.421459,0 21.289211,8.5619655 21.289211,25.2230865 v 52.991623 c 0,9.718987 7.867752,17.586739 17.586739,17.586739 9.718988,0 17.5867398,-7.867752 17.5867398,-17.586739 V 15.71395 c 0,-28.462749 -15.5040988,-46.049489 -42.1156128,-46.049489 -17.818144,0 -28.231345,9.487583 -36.330501,19.900784 v -1.388426 c 0,-9.718988 -7.867752,-17.58674 -17.58674,-17.58674 -9.71899,0 -17.58674,7.867752 -17.58674,17.58674 z"
         style="font-style:normal;font-variant:normal;font-weight:normal;font-stretch:normal;font-family:'Gotham Rounded';-inkscape-font-specification:'Gotham Rounded';letter-spacing:-10.26424694px;fill:#005497;fill-opacity:1;stroke:none;stroke-width:1.20523155;stroke-opacity:1"
         id="path847"
         inkscape:connector-curvature="0" />
      <path
         d="M 39.677516,24.275915 C 42.45437,8.309007 51.941953,-2.1041939 66.520434,-2.1041939 c 14.809886,0 24.066064,10.6446054 26.148704,26.3801089 z m 73.355214,59.470948 c 2.54545,-2.314045 4.62809,-5.785112 4.62809,-10.413201 0,-7.867752 -5.78511,-13.884268 -13.65286,-13.884268 -3.70247,0 -6.016519,0.925618 -8.561968,2.776853 -7.173538,5.322303 -15.272695,8.330561 -24.991682,8.330561 -15.735504,0 -26.842918,-8.330561 -30.313985,-24.297469 h 69.652745 c 9.25618,0 16.42972,-6.710729 16.42972,-16.892526 0,-25.6858953 -18.28096,-59.702352 -59.702356,-59.702352 -36.099097,0 -61.3221832,29.156963 -61.3221832,64.561846 v 0.462809 c 0,37.950332 27.5371312,64.099037 64.7932502,64.099037 18.049548,0 32.165219,-5.785112 43.041229,-15.04129 z"
         style="font-style:normal;font-variant:normal;font-weight:normal;font-stretch:normal;font-family:'Gotham Rounded';-inkscape-font-specification:'Gotham Rounded';letter-spacing:-10.26424694px;fill:#005497;fill-opacity:1;stroke:none;stroke-width:1.20523155;stroke-opacity:1"
         id="path849"
         inkscape:connector-curvature="0" />
      <path
         d="m 132.77153,82.58984 c 0,8.79337 7.17354,15.272695 16.42972,15.272695 6.24792,0 11.10741,-3.933876 15.27269,-9.024774 l 24.99168,-32.859434 24.99168,32.859434 c 4.62809,5.785111 9.48759,9.024774 16.42972,9.024774 8.79337,0 16.19831,-6.247921 16.19831,-16.198313 0,-4.628089 -1.85123,-8.793369 -5.78511,-13.421459 l -31.0082,-35.636287 30.08259,-35.1734788 c 2.77685,-3.471067 4.85949,-7.1735384 4.85949,-12.0330322 0,-8.79337 -7.17354,-15.272695 -16.42972,-15.272695 -6.24792,0 -11.10741,3.933876 -15.27269,9.024774 L 190.15984,9.6974338 167.25079,-20.847956 c -4.62809,-5.785111 -9.48758,-9.024774 -16.42971,-9.024774 -8.79337,0 -16.19832,6.247921 -16.19832,16.198313 0,4.6280891 1.85124,8.7933695 5.78512,13.42145881 L 169.33343,33.069285 137.63102,70.556808 c -3.00826,3.471067 -4.85949,7.173538 -4.85949,12.033032 z"
         style="font-style:normal;font-variant:normal;font-weight:normal;font-stretch:normal;font-family:'Gotham Rounded';-inkscape-font-specification:'Gotham Rounded';letter-spacing:-10.26424694px;fill:#005497;fill-opacity:1;stroke:none;stroke-width:1.20523155;stroke-opacity:1"
         id="path851"
         inkscape:connector-curvature="0" />
      <g
         aria-label="PARABOLA"
         transform="scale(1.0054773,0.99455255)"
         style="font-style:normal;font-variant:normal;font-weight:bold;font-stretch:normal;font-size:173.82637024px;line-height:1.25;font-family:Helvetica;-inkscape-font-specification:'Helvetica Bold';letter-spacing:0px;word-spacing:0px;fill:#005497;fill-opacity:1;stroke:none;stroke-width:1.09115124"
         id="text826">
        <path
           d="m 358.65823,45.732133 h -23.08632 v 35.223605 q 0,7.553978 -3.5648,11.458281 -3.5648,3.904304 -8.99687,3.904304 -5.6867,0 -9.16662,-3.819427 -3.47993,-3.904304 -3.47993,-11.373405 v -95.910058 q 0,-8.317864 3.81943,-11.882662 3.81943,-3.564799 12.13729,-3.564799 h 32.33782 q 14.34407,0 22.0678,2.20678 7.63885,2.121904 13.1558,7.044721 5.60183,4.922817 8.48762,12.0524146 2.88579,7.1295972 2.88579,16.0415937 0,19.0122597 -11.71291,28.8578937 -11.71291,9.760758 -34.8841,9.760758 z m -6.11109,-57.036778 h -16.97523 v 38.024519 h 16.97523 q 8.912,0 14.85333,-1.867276 6.02621,-1.867275 9.16663,-6.111083 3.14041,-4.243808 3.14041,-11.1187767 0,-8.23298729 -4.83794,-13.4104329 -5.43207,-5.5169504 -22.32243,-5.5169504 z"
           style="font-style:normal;font-variant:normal;font-weight:bold;font-stretch:normal;font-family:'Arial Rounded MT Bold';-inkscape-font-specification:'Arial Rounded MT Bold, Bold';letter-spacing:2.9487083px;fill:#005497;fill-opacity:1;stroke-width:1.09115124"
           id="path829" />
        <path
           d="m 493.92886,80.106977 -5.94133,-15.617213 h -50.58619 l -5.94133,15.956717 q -3.47992,9.336378 -5.94133,12.646548 -2.46141,3.225294 -8.06324,3.225294 -4.75306,0 -8.40274,-3.479923 -3.64967,-3.479922 -3.64967,-7.893482 0,-2.546285 0.84876,-5.262322 0.84876,-2.716037 2.80091,-7.553978 l 31.82856,-80.8021019 q 1.35802,-3.4799221 3.2253,-8.3178631 1.95215,-4.922817 4.07405,-8.148111 2.20678,-3.225294 5.6867,-5.177446 3.5648,-2.037028 8.74225,-2.037028 5.26232,0 8.74224,2.037028 3.5648,1.952152 5.68671,5.092569 2.20678,3.140418 3.64967,6.790093 1.52777,3.564799 3.81943,9.5910057 l 32.50757,80.2928453 q 3.81942,9.166625 3.81942,13.325556 0,4.328684 -3.64967,7.978359 -3.5648,3.564799 -8.65737,3.564799 -2.97067,0 -5.09257,-1.10339 -2.1219,-1.018514 -3.5648,-2.800914 -1.44289,-1.867275 -3.14042,-5.601826 -1.61264,-3.819427 -2.80091,-6.705216 z M 444.02168,45.562381 h 37.17576 L 462.43981,-5.7876946 Z"
           style="font-style:normal;font-variant:normal;font-weight:bold;font-stretch:normal;font-family:'Arial Rounded MT Bold';-inkscape-font-specification:'Arial Rounded MT Bold, Bold';letter-spacing:2.9487083px;fill:#005497;fill-opacity:1;stroke-width:1.09115124"
           id="path831" />
        <path
           d="m 576.23679,40.979068 h -8.82712 v 39.97667 q 0,7.893483 -3.47993,11.628034 -3.47992,3.734551 -9.08174,3.734551 -6.02621,0 -9.33638,-3.904304 -3.31017,-3.904303 -3.31017,-11.458281 v -95.740305 q 0,-8.148111 3.64967,-11.797786 3.64968,-3.649675 11.79779,-3.649675 h 40.99518 q 8.48762,0 14.51383,0.763886 6.0262,0.679009 10.86414,2.885789 5.85646,2.461408 10.3549,7.044721 4.49843,4.583312 6.79009,10.6943957 2.37653,6.0262072 2.37653,12.8162998 0,13.9196895 -7.89348,22.2375535 -7.80861,8.317863 -23.76533,11.797786 6.70522,3.564798 12.8163,10.524643 6.11109,6.959845 10.86415,14.853328 4.83794,7.808606 7.4691,14.174318 2.71604,6.280836 2.71604,8.657368 0,2.461409 -1.61265,4.922817 -1.52777,2.376533 -4.2438,3.734551 -2.71604,1.442895 -6.28084,1.442895 -4.24381,0 -7.1296,-2.037028 -2.88579,-1.952152 -5.00769,-5.007693 -2.03703,-3.055542 -5.60183,-8.996873 L 605.77369,63.47125 q -5.43207,-9.251501 -9.76076,-14.089442 -4.24381,-4.837941 -8.65737,-6.620341 -4.41356,-1.782399 -11.11877,-1.782399 z m 14.42894,-52.283713 h -23.25606 v 34.205092 h 22.57706 q 9.08174,0 15.2777,-1.527771 6.19596,-1.612647 9.42126,-5.347198 3.31017,-3.819427 3.31017,-10.4397675 0,-5.1774456 -2.63116,-9.0817488 -2.63116,-3.9891794 -7.29935,-5.9413311 -4.41356,-1.8672756 -17.39962,-1.8672756 z"
           style="font-style:normal;font-variant:normal;font-weight:bold;font-stretch:normal;font-family:'Arial Rounded MT Bold';-inkscape-font-specification:'Arial Rounded MT Bold, Bold';letter-spacing:2.9487083px;fill:#005497;fill-opacity:1;stroke-width:1.09115124"
           id="path833" />
        <path
           d="m 749.87145,80.106977 -5.94133,-15.617213 h -50.58619 l -5.94133,15.956717 q -3.47992,9.336378 -5.94133,12.646548 -2.46141,3.225294 -8.06324,3.225294 -4.75306,0 -8.40274,-3.479923 -3.64967,-3.479922 -3.64967,-7.893482 0,-2.546285 0.84876,-5.262322 0.84876,-2.716037 2.80091,-7.553978 l 31.82856,-80.8021019 q 1.35802,-3.4799221 3.2253,-8.3178631 1.95215,-4.922817 4.07405,-8.148111 2.20678,-3.225294 5.6867,-5.177446 3.5648,-2.037028 8.74225,-2.037028 5.26232,0 8.74224,2.037028 3.5648,1.952152 5.6867,5.092569 2.20678,3.140418 3.64968,6.790093 1.52777,3.564799 3.81943,9.5910057 l 32.50756,80.2928453 q 3.81943,9.166625 3.81943,13.325556 0,4.328684 -3.64967,7.978359 -3.5648,3.564799 -8.65737,3.564799 -2.97067,0 -5.09257,-1.10339 -2.1219,-1.018514 -3.5648,-2.800914 -1.44289,-1.867275 -3.14042,-5.601826 -1.61264,-3.819427 -2.80091,-6.705216 z M 699.96427,45.562381 h 37.17576 L 718.3824,-5.7876946 Z"
           style="font-style:normal;font-variant:normal;font-weight:bold;font-stretch:normal;font-family:'Arial Rounded MT Bold';-inkscape-font-specification:'Arial Rounded MT Bold, Bold';letter-spacing:2.9487083px;fill:#005497;fill-opacity:1;stroke-width:1.09115124"
           id="path836" />
        <path
           d="m 851.2765,94.196419 h -38.02452 q -8.23298,0 -11.79778,-3.649675 -3.47992,-3.734551 -3.47992,-11.797786 v -93.533525 q 0,-8.232988 3.56479,-11.797786 3.64968,-3.649675 11.71291,-3.649675 h 40.31618 q 8.912,0 15.44746,1.10339 6.53546,1.10339 11.71291,4.243808 4.41356,2.631161 7.80861,6.705216 3.39504,3.98918 5.17744,8.911997 1.7824,4.8379409 1.7824,10.270015 0,18.672755 -18.67275,27.330123 24.52921,7.808606 24.52921,30.385664 0,10.439767 -5.3472,18.842507 -5.3472,8.317863 -14.42895,12.307043 -5.6867,2.376532 -13.07093,3.395046 -7.38422,0.933638 -17.22986,0.933638 z M 849.40923,38.94204 h -26.22674 v 36.326996 h 27.0755 q 25.54772,0 25.54772,-18.418126 0,-9.421254 -6.62034,-13.665062 -6.62034,-4.243808 -19.77614,-4.243808 z m -26.22674,-50.246685 v 32.168064 h 23.08632 q 9.42125,0 14.51382,-1.782399 5.17745,-1.7824 7.89348,-6.790093 2.12191,-3.5647987 2.12191,-7.9783589 0,-9.4212534 -6.70522,-12.4767951 -6.70521,-3.140418 -20.45515,-3.140418 z"
           style="font-style:normal;font-variant:normal;font-weight:bold;font-stretch:normal;font-family:'Arial Rounded MT Bold';-inkscape-font-specification:'Arial Rounded MT Bold, Bold';letter-spacing:2.9487083px;fill:#005497;fill-opacity:1;stroke-width:1.09115124"
           id="path838" />
        <path
           d="m 980.77556,-32.353932 q 19.35174,0 33.18654,7.893483 13.9197,7.808606 21.0493,22.3224292 7.1296,14.4289468 7.1296,33.9504628 0,14.428947 -3.9043,26.226733 -3.9043,11.797786 -11.7129,20.455154 -7.8086,8.657368 -19.182,13.24068 -11.3734,4.583313 -26.05698,4.583313 -14.5987,0 -26.14186,-4.668189 -11.54315,-4.753065 -19.26688,-13.325557 -7.72373,-8.572492 -11.71291,-20.624906 -3.90431,-12.052414 -3.90431,-26.05698 0,-14.344071 4.07406,-26.311609 4.15893,-11.9675382 11.96754,-20.370278 7.8086,-8.402739 19.01226,-12.816299 11.20365,-4.498437 25.46284,-4.498437 z m 35.81774,63.996623 q 0,-13.665062 -4.4136,-23.6804481 -4.4135,-10.0153866 -12.64651,-15.107956 -8.14811,-5.1774459 -18.75763,-5.1774459 -7.55397,0 -14.00456,2.8857896 -6.36571,2.8009132 -11.0339,8.2329873 -4.58332,5.4320741 -7.29935,13.9196901 -2.63116,8.402739 -2.63116,18.927383 0,10.609519 2.63116,19.182011 2.71603,8.572492 7.55398,14.259195 4.92281,5.601826 11.20365,8.402739 6.36571,2.800914 13.91969,2.800914 9.67588,0 17.73911,-4.837941 8.14812,-4.837941 12.90122,-14.938204 4.8379,-10.100263 4.8379,-24.868714 z"
           style="font-style:normal;font-variant:normal;font-weight:bold;font-stretch:normal;font-family:'Arial Rounded MT Bold';-inkscape-font-specification:'Arial Rounded MT Bold, Bold';letter-spacing:2.9487083px;fill:#005497;fill-opacity:1;stroke-width:1.09115124"
           id="path840" />
        <path
           d="m 1091.517,-17.076224 v 90.56286 h 51.0954 q 6.1111,0 9.3364,2.970666 3.3102,2.970665 3.3102,7.469102 0,4.583312 -3.2253,7.469102 -3.2253,2.800913 -9.4213,2.800913 h -60.8562 q -8.2329,0 -11.8826,-3.649675 -3.5648,-3.649675 -3.5648,-11.797786 v -95.825182 q 0,-7.638854 3.395,-11.458281 3.48,-3.819427 9.0818,-3.819427 5.6867,0 9.1666,3.819427 3.5648,3.734551 3.5648,11.458281 z"
           style="font-style:normal;font-variant:normal;font-weight:bold;font-stretch:normal;font-family:'Arial Rounded MT Bold';-inkscape-font-specification:'Arial Rounded MT Bold, Bold';letter-spacing:2.9487083px;fill:#005497;fill-opacity:1;stroke-width:1.09115124"
           id="path842" />
        <path
           d="m 1252.1232,80.106977 -5.9414,-15.617213 h -50.5862 l -5.9413,15.956717 q -3.4799,9.336378 -5.9413,12.646548 -2.4614,3.225294 -8.0633,3.225294 -4.753,0 -8.4027,-3.479923 -3.6497,-3.479922 -3.6497,-7.893482 0,-2.546285 0.8488,-5.262322 0.8487,-2.716037 2.8009,-7.553978 l 31.8286,-80.8021019 q 1.358,-3.4799221 3.2253,-8.3178631 1.9521,-4.922817 4.074,-8.148111 2.2068,-3.225294 5.6867,-5.177446 3.5648,-2.037028 8.7423,-2.037028 5.2623,0 8.7422,2.037028 3.5648,1.952152 5.6867,5.092569 2.2068,3.140418 3.6497,6.790093 1.5277,3.564799 3.8194,9.5910057 l 32.5076,80.2928453 q 3.8194,9.166625 3.8194,13.325556 0,4.328684 -3.6497,7.978359 -3.5648,3.564799 -8.6573,3.564799 -2.9707,0 -5.0926,-1.10339 -2.1219,-1.018514 -3.5648,-2.800914 -1.4429,-1.867275 -3.1404,-5.601826 -1.6127,-3.819427 -2.8009,-6.705216 z M 1202.216,45.562381 h 37.1757 l -18.7576,-51.3500756 z"
           style="font-style:normal;font-variant:normal;font-weight:bold;font-stretch:normal;font-family:'Arial Rounded MT Bold';-inkscape-font-specification:'Arial Rounded MT Bold, Bold';letter-spacing:2.9487083px;fill:#005497;fill-opacity:1;stroke-width:1.09115124"
           id="path844" />
      </g>
    </g>
  </g>
</svg>
